<svg width="2029" height="800" viewBox="0 0 2029 800" fill="none" xmlns="http://www.w3.org/2000/svg">
<g clip-path="url(#clip0_73_2)">
<path d="M1432.04 275.352L1429.21 800H1773.36C1879.88 800 1973.18 733.805 2001.04 638.492L2021.8 537.042H1705.24V400.013H2029V276.742C2029 123.892 1895.36 0 1730.52 0C1566.26 0 1432.86 123.056 1432.04 275.352Z" fill="#E4E3E3"/>
<path d="M777.6 275.352L774.769 800H1374.55V537.703H1050.79V400H1374.55V276.728C1374.55 123.892 1240.92 0 1076.07 0C911.811 0 778.414 123.056 777.6 275.352Z" fill="#E4E3E3"/>
<path d="M709.519 156.45V800.014H459.859C448.961 800.014 438.238 799.42 427.621 798.139C328.892 786.675 244.546 723.326 213.216 633.92L0 25.8413H142.505C235.104 25.8413 317.154 81.1249 345.732 162.803L427.608 396.912V156.45C427.608 84.3618 490.707 25.8548 568.563 25.8548C607.491 25.8548 642.747 40.4613 668.214 64.1446C693.761 87.747 709.519 120.359 709.519 156.45Z" fill="#E4E3E3"/>
<path d="M459.859 800H427.621V798.125C438.251 799.393 448.961 800 459.859 800Z" fill="#E4E3E3"/>
</g>
<defs>
<clipPath id="clip0_73_2">
<rect width="2029" height="800" fill="white"/>
</clipPath>
</defs>
</svg>
